<mxfile host="Electron" modified="2023-04-27T00:01:48.519Z" agent="Mozilla/5.0 (Windows NT 10.0; Win64; x64) AppleWebKit/537.36 (KHTML, like Gecko) draw.io/21.1.2 Chrome/106.0.5249.199 Electron/21.4.3 Safari/537.36" etag="CuQhO1TjGsBBJnlJgmAy" version="21.1.2" type="device">
  <diagram name="Page-1" id="9wdijXzMte5DXuW9Z1gr">
    <mxGraphModel dx="1941" dy="720" grid="1" gridSize="10" guides="1" tooltips="1" connect="1" arrows="1" fold="1" page="1" pageScale="1" pageWidth="827" pageHeight="1169" math="0" shadow="0">
      <root>
        <mxCell id="0" />
        <mxCell id="1" parent="0" />
        <mxCell id="jdm4P69FiNkdx2D3okPl-1" value="Sign up" style="rounded=0;whiteSpace=wrap;html=1;" vertex="1" parent="1">
          <mxGeometry x="210" y="180" width="90" height="40" as="geometry" />
        </mxCell>
        <mxCell id="jdm4P69FiNkdx2D3okPl-2" value="Sign in" style="rounded=0;whiteSpace=wrap;html=1;" vertex="1" parent="1">
          <mxGeometry x="324" y="180" width="90" height="40" as="geometry" />
        </mxCell>
        <mxCell id="jdm4P69FiNkdx2D3okPl-3" value="Index" style="rounded=0;whiteSpace=wrap;html=1;" vertex="1" parent="1">
          <mxGeometry x="270" y="300" width="90" height="40" as="geometry" />
        </mxCell>
        <mxCell id="jdm4P69FiNkdx2D3okPl-4" value="Guest" style="rounded=0;whiteSpace=wrap;html=1;" vertex="1" parent="1">
          <mxGeometry x="-190" y="440" width="90" height="40" as="geometry" />
        </mxCell>
        <mxCell id="jdm4P69FiNkdx2D3okPl-5" value="Employees" style="rounded=0;whiteSpace=wrap;html=1;" vertex="1" parent="1">
          <mxGeometry x="-50" y="440" width="90" height="40" as="geometry" />
        </mxCell>
        <mxCell id="jdm4P69FiNkdx2D3okPl-6" value="Events" style="rounded=0;whiteSpace=wrap;html=1;" vertex="1" parent="1">
          <mxGeometry x="100" y="440" width="90" height="40" as="geometry" />
        </mxCell>
        <mxCell id="jdm4P69FiNkdx2D3okPl-7" value="Bookings" style="rounded=0;whiteSpace=wrap;html=1;" vertex="1" parent="1">
          <mxGeometry x="250" y="440" width="90" height="40" as="geometry" />
        </mxCell>
        <mxCell id="jdm4P69FiNkdx2D3okPl-8" value="Rooms" style="rounded=0;whiteSpace=wrap;html=1;" vertex="1" parent="1">
          <mxGeometry x="400" y="440" width="90" height="40" as="geometry" />
        </mxCell>
        <mxCell id="jdm4P69FiNkdx2D3okPl-9" value="Room services" style="rounded=0;whiteSpace=wrap;html=1;" vertex="1" parent="1">
          <mxGeometry x="550" y="440" width="90" height="40" as="geometry" />
        </mxCell>
        <mxCell id="jdm4P69FiNkdx2D3okPl-10" value="&lt;span style=&quot;font-weight: normal;&quot;&gt;Announcements&lt;/span&gt;" style="rounded=0;whiteSpace=wrap;html=1;fontStyle=1" vertex="1" parent="1">
          <mxGeometry x="680" y="440" width="90" height="40" as="geometry" />
        </mxCell>
        <mxCell id="jdm4P69FiNkdx2D3okPl-11" value="&lt;span style=&quot;font-weight: normal;&quot;&gt;Refunds&lt;/span&gt;" style="rounded=0;whiteSpace=wrap;html=1;fontStyle=1" vertex="1" parent="1">
          <mxGeometry x="810" y="440" width="90" height="40" as="geometry" />
        </mxCell>
        <mxCell id="jdm4P69FiNkdx2D3okPl-12" value="Add New Employee" style="rounded=0;whiteSpace=wrap;html=1;" vertex="1" parent="1">
          <mxGeometry x="-50" y="530" width="90" height="40" as="geometry" />
        </mxCell>
        <mxCell id="jdm4P69FiNkdx2D3okPl-13" value="Create event" style="rounded=0;whiteSpace=wrap;html=1;" vertex="1" parent="1">
          <mxGeometry x="100" y="530" width="90" height="40" as="geometry" />
        </mxCell>
        <mxCell id="jdm4P69FiNkdx2D3okPl-14" value="Add room" style="rounded=0;whiteSpace=wrap;html=1;" vertex="1" parent="1">
          <mxGeometry x="400" y="530" width="90" height="40" as="geometry" />
        </mxCell>
        <mxCell id="jdm4P69FiNkdx2D3okPl-15" value="" style="endArrow=classic;html=1;rounded=0;exitX=0;exitY=1;exitDx=0;exitDy=0;entryX=0.5;entryY=0;entryDx=0;entryDy=0;" edge="1" parent="1" source="jdm4P69FiNkdx2D3okPl-3" target="jdm4P69FiNkdx2D3okPl-4">
          <mxGeometry width="50" height="50" relative="1" as="geometry">
            <mxPoint x="60" y="470" as="sourcePoint" />
            <mxPoint x="110" y="420" as="targetPoint" />
          </mxGeometry>
        </mxCell>
        <mxCell id="jdm4P69FiNkdx2D3okPl-16" value="" style="endArrow=none;html=1;rounded=0;exitX=0.5;exitY=1;exitDx=0;exitDy=0;entryX=0.5;entryY=1;entryDx=0;entryDy=0;" edge="1" parent="1" source="jdm4P69FiNkdx2D3okPl-1" target="jdm4P69FiNkdx2D3okPl-2">
          <mxGeometry width="50" height="50" relative="1" as="geometry">
            <mxPoint x="60" y="370" as="sourcePoint" />
            <mxPoint x="110" y="320" as="targetPoint" />
            <Array as="points">
              <mxPoint x="320" y="240" />
            </Array>
          </mxGeometry>
        </mxCell>
        <mxCell id="jdm4P69FiNkdx2D3okPl-17" value="" style="endArrow=classic;html=1;rounded=0;entryX=0.5;entryY=0;entryDx=0;entryDy=0;" edge="1" parent="1" target="jdm4P69FiNkdx2D3okPl-3">
          <mxGeometry width="50" height="50" relative="1" as="geometry">
            <mxPoint x="320" y="240" as="sourcePoint" />
            <mxPoint x="110" y="320" as="targetPoint" />
          </mxGeometry>
        </mxCell>
        <mxCell id="jdm4P69FiNkdx2D3okPl-18" value="" style="endArrow=classic;html=1;rounded=0;exitX=0.13;exitY=1.008;exitDx=0;exitDy=0;entryX=0.5;entryY=0;entryDx=0;entryDy=0;exitPerimeter=0;" edge="1" parent="1" source="jdm4P69FiNkdx2D3okPl-3" target="jdm4P69FiNkdx2D3okPl-5">
          <mxGeometry width="50" height="50" relative="1" as="geometry">
            <mxPoint x="280" y="350" as="sourcePoint" />
            <mxPoint x="-135" y="450" as="targetPoint" />
          </mxGeometry>
        </mxCell>
        <mxCell id="jdm4P69FiNkdx2D3okPl-19" value="" style="endArrow=classic;html=1;rounded=0;exitX=0.25;exitY=1;exitDx=0;exitDy=0;entryX=0.5;entryY=0;entryDx=0;entryDy=0;" edge="1" parent="1" source="jdm4P69FiNkdx2D3okPl-3" target="jdm4P69FiNkdx2D3okPl-6">
          <mxGeometry width="50" height="50" relative="1" as="geometry">
            <mxPoint x="290" y="360" as="sourcePoint" />
            <mxPoint x="-125" y="460" as="targetPoint" />
          </mxGeometry>
        </mxCell>
        <mxCell id="jdm4P69FiNkdx2D3okPl-20" value="" style="endArrow=classic;html=1;rounded=0;exitX=0.396;exitY=0.975;exitDx=0;exitDy=0;entryX=0.5;entryY=0;entryDx=0;entryDy=0;exitPerimeter=0;" edge="1" parent="1" source="jdm4P69FiNkdx2D3okPl-3" target="jdm4P69FiNkdx2D3okPl-7">
          <mxGeometry width="50" height="50" relative="1" as="geometry">
            <mxPoint x="303" y="350" as="sourcePoint" />
            <mxPoint x="155" y="450" as="targetPoint" />
          </mxGeometry>
        </mxCell>
        <mxCell id="jdm4P69FiNkdx2D3okPl-21" value="" style="endArrow=classic;html=1;rounded=0;exitX=0.589;exitY=1.042;exitDx=0;exitDy=0;entryX=0.5;entryY=0;entryDx=0;entryDy=0;exitPerimeter=0;" edge="1" parent="1" source="jdm4P69FiNkdx2D3okPl-3" target="jdm4P69FiNkdx2D3okPl-8">
          <mxGeometry width="50" height="50" relative="1" as="geometry">
            <mxPoint x="316" y="349" as="sourcePoint" />
            <mxPoint x="305" y="450" as="targetPoint" />
          </mxGeometry>
        </mxCell>
        <mxCell id="jdm4P69FiNkdx2D3okPl-22" value="" style="endArrow=classic;html=1;rounded=0;exitX=0.75;exitY=1;exitDx=0;exitDy=0;entryX=0.25;entryY=0;entryDx=0;entryDy=0;" edge="1" parent="1" source="jdm4P69FiNkdx2D3okPl-3" target="jdm4P69FiNkdx2D3okPl-9">
          <mxGeometry width="50" height="50" relative="1" as="geometry">
            <mxPoint x="333" y="352" as="sourcePoint" />
            <mxPoint x="455" y="450" as="targetPoint" />
          </mxGeometry>
        </mxCell>
        <mxCell id="jdm4P69FiNkdx2D3okPl-23" value="" style="endArrow=classic;html=1;rounded=0;exitX=0.907;exitY=0.975;exitDx=0;exitDy=0;entryX=0.25;entryY=0;entryDx=0;entryDy=0;exitPerimeter=0;" edge="1" parent="1" source="jdm4P69FiNkdx2D3okPl-3" target="jdm4P69FiNkdx2D3okPl-10">
          <mxGeometry width="50" height="50" relative="1" as="geometry">
            <mxPoint x="348" y="350" as="sourcePoint" />
            <mxPoint x="583" y="450" as="targetPoint" />
          </mxGeometry>
        </mxCell>
        <mxCell id="jdm4P69FiNkdx2D3okPl-24" value="" style="endArrow=classic;html=1;rounded=0;exitX=1;exitY=1;exitDx=0;exitDy=0;entryX=0;entryY=0;entryDx=0;entryDy=0;" edge="1" parent="1" source="jdm4P69FiNkdx2D3okPl-3" target="jdm4P69FiNkdx2D3okPl-11">
          <mxGeometry width="50" height="50" relative="1" as="geometry">
            <mxPoint x="362" y="349" as="sourcePoint" />
            <mxPoint x="713" y="450" as="targetPoint" />
          </mxGeometry>
        </mxCell>
        <mxCell id="jdm4P69FiNkdx2D3okPl-25" value="" style="endArrow=classic;html=1;rounded=0;exitX=0.5;exitY=1;exitDx=0;exitDy=0;entryX=0.5;entryY=0;entryDx=0;entryDy=0;" edge="1" parent="1" source="jdm4P69FiNkdx2D3okPl-5" target="jdm4P69FiNkdx2D3okPl-12">
          <mxGeometry width="50" height="50" relative="1" as="geometry">
            <mxPoint x="292" y="350" as="sourcePoint" />
            <mxPoint x="5" y="450" as="targetPoint" />
          </mxGeometry>
        </mxCell>
        <mxCell id="jdm4P69FiNkdx2D3okPl-26" value="" style="endArrow=classic;html=1;rounded=0;exitX=0.5;exitY=1;exitDx=0;exitDy=0;entryX=0.5;entryY=0;entryDx=0;entryDy=0;" edge="1" parent="1" source="jdm4P69FiNkdx2D3okPl-6" target="jdm4P69FiNkdx2D3okPl-13">
          <mxGeometry width="50" height="50" relative="1" as="geometry">
            <mxPoint x="5" y="490" as="sourcePoint" />
            <mxPoint x="5" y="540" as="targetPoint" />
          </mxGeometry>
        </mxCell>
        <mxCell id="jdm4P69FiNkdx2D3okPl-27" value="" style="endArrow=classic;html=1;rounded=0;exitX=0.5;exitY=1;exitDx=0;exitDy=0;entryX=0.5;entryY=0;entryDx=0;entryDy=0;" edge="1" parent="1" source="jdm4P69FiNkdx2D3okPl-8" target="jdm4P69FiNkdx2D3okPl-14">
          <mxGeometry width="50" height="50" relative="1" as="geometry">
            <mxPoint x="155" y="490" as="sourcePoint" />
            <mxPoint x="155" y="540" as="targetPoint" />
          </mxGeometry>
        </mxCell>
      </root>
    </mxGraphModel>
  </diagram>
</mxfile>
